<svg id="Layer_1" data-name="Layer 1" xmlns="http://www.w3.org/2000/svg" xmlns:xlink="http://www.w3.org/1999/xlink" viewBox="0 0 170.905 204.082"><defs><style>.cls-1{fill:#6ac6b7;stroke:#6ac6b7;}.cls-1,.cls-2,.cls-3,.cls-4{stroke-miterlimit:10;}.cls-1,.cls-2,.cls-3{stroke-width:9px;}.cls-2{fill:#f6ef7c;stroke:#f7f07b;}.cls-3{fill:url(#linear-gradient);stroke:url(#linear-gradient-2);}.cls-4{fill:#758a93;stroke:#758a93;}</style><linearGradient id="linear-gradient" x1="72.683" y1="87.389" x2="96.48" y2="87.389" gradientTransform="translate(169.163 174.779) rotate(180)" gradientUnits="userSpaceOnUse"><stop offset="0" stop-color="#6466ae"/><stop offset="1" stop-color="#8350a0"/></linearGradient><linearGradient id="linear-gradient-2" x1="68.183" y1="87.389" x2="100.98" y2="87.389" gradientTransform="translate(169.163 174.779) rotate(180)" gradientUnits="userSpaceOnUse"><stop offset="0" stop-color="#f7f07b"/><stop offset="1" stop-color="#6ac6b7"/></linearGradient></defs><title>Untitled-1</title><path class="cls-1" d="M112.234,133.1q0-25.725.007-51.45a4.752,4.752,0,0,0-.3-1.627c-2.757-7.73-5.884-15.318-8.809-22.983-.548-1.434-.537-1.442.994-1.445,1.706,0,3.412.023,5.117-.014a.985.985,0,0,1,1.051.672q4.56,9.669,9.152,19.322c.57,1.2,1.065,2.45,1.72,3.605a7.727,7.727,0,0,1,.867,4q0,50.568.063,101.137a4.984,4.984,0,0,1-2.361,4.556,4.777,4.777,0,0,1-5.042.181,4.713,4.713,0,0,1-2.607-4.409c-.016-7.5,0-15.011,0-22.516V133.1Z"/><path class="cls-2" d="M48.991,107.5q0-12.511-.007-25.024a4.7,4.7,0,0,1,.448-2.052Q55.018,68.47,60.548,56.49a1.2,1.2,0,0,1,1.3-.859c1.8.054,3.6.037,5.394.005.65-.011.87.055.566.786-3.324,8.01-6.611,16.036-9.925,24.052a5.5,5.5,0,0,0-.414,2.159q-.041,25.116-.112,50.233a4.217,4.217,0,0,1-4.419,4.463c-2.43-.024-4.128-1.877-4.129-4.527q-.006-12.651,0-25.3Z"/><rect class="cls-3" x="72.683" y="83.884" width="23.797" height="7.011" rx="3.505" transform="translate(169.163 174.779) rotate(-180)"/><polygon class="cls-4" points="85.453 10.611 65.524 45.128 105.382 45.128 85.453 10.611"/></svg>